<?xml version="1.0" encoding="utf-8"?>
<!-- Generator: Adobe Illustrator 26.0.3, SVG Export Plug-In . SVG Version: 6.00 Build 0)  -->
<!DOCTYPE svg PUBLIC "-//W3C//DTD SVG 1.1//EN" "http://www.w3.org/Graphics/SVG/1.1/DTD/svg11.dtd" [
	<!ENTITY ns_extend "http://ns.adobe.com/Extensibility/1.0/">
	<!ENTITY ns_ai "http://ns.adobe.com/AdobeIllustrator/10.0/">
	<!ENTITY ns_graphs "http://ns.adobe.com/Graphs/1.0/">
	<!ENTITY ns_vars "http://ns.adobe.com/Variables/1.0/">
	<!ENTITY ns_imrep "http://ns.adobe.com/ImageReplacement/1.0/">
	<!ENTITY ns_sfw "http://ns.adobe.com/SaveForWeb/1.0/">
	<!ENTITY ns_custom "http://ns.adobe.com/GenericCustomNamespace/1.0/">
	<!ENTITY ns_adobe_xpath "http://ns.adobe.com/XPath/1.0/">
]>
<svg version="1.1" id="Layer_1" xmlns:x="&ns_extend;" xmlns:i="&ns_ai;" xmlns:graph="&ns_graphs;"
	 xmlns="http://www.w3.org/2000/svg" xmlns:xlink="http://www.w3.org/1999/xlink" x="0px" y="0px" width="246.9px" height="246.3px"
	 viewBox="0 0 246.9 246.3" style="enable-background:new 0 0 246.9 246.3;" xml:space="preserve">
<style type="text/css">
	.st0{fill:none;stroke:#000000;stroke-miterlimit:11.3386;}
</style>
<metadata>
	<sfw  xmlns="&ns_sfw;">
		<slices></slices>
		<sliceSourceBounds  bottomLeftOrigin="true" height="225.9" width="213.9" x="14.1" y="593.3"></sliceSourceBounds>
	</sfw>
</metadata>
<desc>made with tinkercad</desc>
<g>
	<polyline class="st0" points="81.6,18.1 82.5,20 83.6,22.4 85.5,26.7 87.2,31.1 88.8,35.5 90.3,40 91.6,44.5 92.6,48.7 92.7,49 
		93.4,52 93.7,53.6 94.6,58.3 95.3,62.9 95.8,67.6 96.2,72.3 96.4,77 96.5,81.6 96.5,82 96.4,86.3 96.2,91 95.8,95.7 95.3,100.4 
		94.6,105 93.8,109.7 92.8,114.3 92.6,115.3 91.7,118.8 90.4,123.4 89,127.8 87.4,132.3 80.2,132.3 80.2,122.9 72.5,122.9 
		72.5,132.3 65.2,132.3 63.7,127.8 62.2,123.4 62.1,122.9 61,118.8 60.1,115.3 59.8,114.3 58.9,109.7 58,105 57.3,100.4 56.8,95.7 
		56.4,91 56.2,86.3 56.2,82 56.2,81.6 56.2,77 56.5,72.3 56.7,69.6 56.9,67.6 57.4,62.9 58.1,58.3 59,53.6 59.3,52 60,49 60,48.7 
		61.1,44.5 62.4,40 63.8,35.5 65.4,31.1 67.1,26.7 69,22.4 70.1,20 71,18.1 72.4,15.4 73.2,14 75.5,9.9 75.6,9.6 75.8,9.5 76.1,9.4 
		76.3,9.3 76.6,9.4 76.8,9.5 77,9.6 77.2,9.9 79.5,14 80.2,15.4 81.6,18.1 	"/>
	<polyline class="st0" points="40.1,18.1 41.3,20.6 42.1,22.4 44,26.7 45.7,31.1 47.3,35.5 48.7,40 50,44.5 51.2,49 51.2,49.2 
		51.9,52.6 52.2,53.6 53,58.3 53.7,62.9 54.3,67.6 54.7,72.3 54.9,77 55,81.7 55,82.5 54.9,86.3 54.7,91 54.3,95.7 53.8,100.4 
		53.1,105 52.3,109.7 51.3,114.3 50.9,115.8 50.2,118.8 48.9,123.4 47.5,127.8 45.9,132.3 38.7,132.3 38.7,122.9 30.9,122.9 
		30.9,132.3 23.7,132.3 22.1,127.8 20.7,123.4 20.6,122.9 19.4,118.8 18.7,115.8 18.3,114.3 17.3,109.7 16.5,105 15.8,100.4 
		15.3,95.7 14.9,91 14.7,86.3 14.6,82.5 14.6,81.7 14.7,77 14.9,72.3 15.3,67.6 15.9,62.9 16.6,58.3 17.4,53.6 17.6,52.6 18.4,49.2 
		18.4,49 19.6,44.5 20.9,40 22.3,35.5 23.9,31.1 25.6,26.7 27.5,22.4 28.3,20.6 29.5,18.1 29.8,17.5 30.6,15.9 31.6,14 33.9,9.9 
		34.1,9.6 34.3,9.5 34.5,9.4 34.8,9.3 35.1,9.4 35.3,9.5 35.5,9.6 35.7,9.9 38,14 39,15.9 40.1,18.1 	"/>
	<polyline class="st0" points="150.6,166.8 149.1,162.4 147.7,157.9 147.5,157.4 146.4,153.4 145.2,148.8 145.2,148.6 144.3,144.2 
		143.4,139.6 142.8,134.9 142.2,130.2 141.9,125.6 141.6,120.9 141.6,116.2 141.6,115.3 141.6,111.5 141.9,106.8 142.3,102.1 
		142.8,97.4 143.5,92.8 144.4,88.2 145.4,83.6 145.8,82 146.5,79 147.8,74.5 149.2,70 150.8,65.6 152.6,61.2 152.8,60.7 154.4,56.9 
		156.4,52.7 158.5,48.7 158.6,48.5 160.9,44.4 161,44.2 161.2,44 161.5,43.9 161.7,43.9 162,43.9 162.2,44 162.5,44.2 162.6,44.4 
		164.9,48.5 165,48.7 167,52.7 169.1,56.9 170.9,61.2 172.7,65.6 174.2,70 175.7,74.5 177,79 177.7,82 178.1,83.6 179.1,88.2 
		180,92.8 180.7,97.4 181.2,102.1 181.6,106.8 181.8,111.5 181.9,115.3 181.9,116.2 181.8,120.9 181.6,125.6 181.2,130.2 
		180.7,134.9 180,139.6 179.2,144.2 178.3,148.6 178.2,148.8 177.1,153.4 175.8,157.9 174.4,162.4 172.8,166.8 165.6,166.8 
		165.6,157.4 157.9,157.4 157.9,166.8 150.6,166.8 	"/>
	<polyline class="st0" points="136.8,123.9 136.9,128.6 136.8,133.3 136.6,138 136.2,142.7 135.7,147.4 135,152 134.9,152.3 
		134.8,152.9 134.2,156.7 133.2,161.3 132,165.8 130.8,170.3 129.3,174.8 127.8,179.2 127.8,179.2 120.6,179.2 120.6,179.2 
		120.6,169.9 118.6,169.9 112.8,169.9 112.8,176.2 112.8,179.2 112.8,179.2 105.6,179.2 105.6,179.2 104,174.8 102.6,170.3 
		102.5,169.9 101.3,165.8 101.1,164.9 100.2,161.3 99.2,156.7 99.2,156.3 98.5,152.9 98.4,152.3 98.4,152 97.7,147.4 97.2,142.7 
		96.8,138 96.6,133.3 96.5,128.6 96.6,123.9 96.8,119.6 96.8,119.2 97.2,114.6 97.8,109.9 98.5,105.2 99.3,100.6 100.3,96 
		101.4,91.5 102.7,86.9 103,86.3 104.2,82.5 105.8,78.1 107.5,73.7 109.4,69.4 111.4,65.1 113.5,60.9 115.8,56.8 116,56.6 
		116.2,56.5 116.4,56.4 116.7,56.3 116.9,56.4 117.2,56.5 117.4,56.6 117.6,56.8 118.6,58.8 119.8,60.9 122,65.1 124,69.4 
		125.9,73.7 127.6,78.1 129.2,82.5 130.4,86.3 130.6,86.9 131.9,91.5 133.1,96 134.1,100.6 134.9,105.2 135.6,109.9 136.1,114.6 
		136.5,119.2 136.6,119.6 136.8,123.9 	"/>
	<polyline class="st0" points="37.1,140.6 37.7,140.5 40.2,140.5 40.2,146.3 47.9,146.3 47.9,140.5 50.2,140.5 50.5,140.5 51,140.6 
		51.5,140.8 51.9,141.1 52.4,141.4 52.8,141.7 53.1,142.2 53.3,142.6 53.5,143.1 53.7,143.6 53.7,144.1 53.7,164 53.7,164.7 
		56.4,167 61,170.9 66.9,176 68.7,177.5 68.7,177.5 68.7,177.6 68.8,177.6 68.9,177.7 68.9,177.7 68.9,177.9 69,178 69,178.1 
		69,178.1 69,178.2 69,178.2 69,178.5 69,178.6 69,178.7 68.9,178.8 68.7,179 68.5,179.1 68.3,179.2 68.1,179.2 66.9,179.2 
		33.6,179.2 20.1,179.2 19.9,179.2 19.8,179.2 19.6,179.1 19.5,179.1 19.4,179 19.3,178.9 19.2,178.8 19.2,178.6 19.1,178.4 
		19.1,178.2 19.2,177.9 19.3,177.7 19.4,177.5 33.6,165.4 34.4,164.7 34.4,164 34.4,144.1 34.4,143.6 34.6,143.1 34.8,142.6 
		35,142.2 35.4,141.7 35.7,141.4 36.2,141.1 36.6,140.8 37.1,140.6 	"/>
	<polyline class="st0" points="60.4,154.2 61.5,152.8 62.4,151.7 67.3,146.5 71.7,142.1 75.9,138.4 79.5,136.4 80.6,136.2 
		82.9,135.7 85,135.6 86.8,136.2 88,136.6 90.5,139 92.9,143.2 93.5,146.4 93.5,150.5 93.2,156.1 92.3,160.6 91.7,162.6 91.2,163.8 
		91.2,166.5 91.2,169.5 91.2,172.5 91.1,181.4 91.2,187.1 91.5,189.9 91.7,190.8 92.8,190.8 93.8,190.7 97.2,188.4 102.1,185.8 
		106.2,184.5 110.3,183.9 112.5,183.8 113.3,184.4 113.8,185.8 113.8,186.6 113.8,189.9 113.8,190.8 113.8,202.8 113.8,208.2 
		117.6,208.2 121.5,208.2 121.5,202.8 121.5,186.6 125.9,188.5 131.5,193.4 134.8,198.1 136.1,202.8 136.6,204.7 136.7,208.2 
		136.9,212.3 136.7,219.7 135.9,226.1 134.7,228.6 130.8,234.2 117.6,234.2 113.8,234.2 84.8,234.2 83,232.9 81.2,231.7 80.7,231.2 
		79,229.3 77.3,225.9 76.3,221.2 76.3,216.2 76.8,211 78,204.3 78.2,202.8 78.7,199.4 79.2,194.5 79.5,189.5 79.4,184.7 79.5,180.4 
		79.3,175.5 79.2,174.6 78.5,169.5 78.2,167 76.8,164.7 76.3,164.6 74.7,166.1 73.2,169.5 73,169.8 71.9,172.3 70.8,172.7 69,172.4 
		66.6,171.3 65.9,169.9 65.8,169.5 65.3,167.2 65.4,165 66.3,162.6 66.8,161.1 67.4,159.7 68.3,157.7 68.8,156.7 68.8,156.6 
		68.6,156.5 68.3,156.3 60,156.3 59.6,155.6 60.4,154.2 	"/>
	<polyline class="st0" points="193.3,162.6 191.7,158.1 190.3,153.7 190.2,153.2 189,149.1 187.9,144.6 186.9,140 186.1,135.4 
		186,134.9 185.4,130.7 184.9,126 184.5,121.4 184.3,116.7 184.2,112 184.3,107.3 184.5,102.6 184.6,101.6 184.9,97.9 185.5,93.2 
		186.2,88.6 187,83.9 188,79.4 189.1,74.8 190.4,70.3 191.1,68.3 191.9,65.8 193.5,61.4 195.2,57 197.1,52.7 199.1,48.5 200.4,45.8 
		201.2,44.3 203.5,40.2 203.7,40 203.9,39.8 204.1,39.7 204.4,39.7 204.6,39.7 204.9,39.8 205.1,40 205.3,40.2 207.5,44.3 
		209.7,48.5 211.2,51.7 211.7,52.7 213.6,57 215.3,61.4 216.9,65.8 217.1,66.5 217.7,68.3 218.3,70.3 219.6,74.8 220.8,79.4 
		221.8,83.9 222.6,88.6 223.3,93.2 223.8,97.9 224.2,101.6 224.2,102.6 224.5,107.3 224.6,112 224.5,116.7 224.3,121.4 223.9,126 
		223.4,130.7 222.7,134.9 222.7,135.4 221.9,140 220.9,144.6 219.7,149.1 218.5,153.7 217.1,158 217,158.1 215.5,162.6 208.3,162.6 
		208.3,153.2 200.5,153.2 200.5,162.6 193.3,162.6 	"/>
	<polyline class="st0" points="24.2,223 24.2,222.8 24.2,222.6 24.2,222.3 24.3,222.1 24.5,222 32.6,215 39.4,209.1 39.4,196.8 
		39.4,188.6 39.5,188 39.6,187.5 39.8,187 40.1,186.6 40.4,186.1 40.8,185.8 41.2,185.5 41.7,185.2 42.2,185 42.7,184.9 45.2,184.9 
		45.2,190.7 49.2,190.7 53,190.7 53,184.9 55.5,184.9 56,185 56.5,185.2 57,185.5 57.4,185.8 57.8,186.1 58.1,186.6 58.4,187 
		58.6,187.5 58.7,188 58.8,188.6 58.8,190.7 58.8,196.8 58.8,209.1 65.9,215.2 73.7,221.9 73.7,222 73.8,222 73.8,222 73.9,222.1 
		73.9,222.2 74,222.3 74,222.4 74,222.5 74,222.5 74.1,222.6 74.1,222.6 74,222.9 74,223 74,223.1 73.9,223.2 73.8,223.4 
		73.6,223.5 73.4,223.6 73.1,223.7 65.9,223.7 58.8,223.7 32.6,223.7 25.1,223.7 24.9,223.6 24.8,223.6 24.6,223.5 24.6,223.5 
		24.5,223.4 24.3,223.3 24.3,223.2 24.2,223 	"/>
	<polygon class="st0" points="151.2,226.3 150.6,224.8 150.3,224.2 149.4,222.2 148.7,220.1 148.1,217.9 147.6,215.8 147.2,213.6 
		147,211.4 146.8,209.2 146.8,207 146.8,206.9 146.9,204.7 147.1,202.5 147.5,200.3 147.9,198.1 156.8,201 159.2,193.7 150.4,190.8 
		150.6,190.3 151.4,188.8 152.4,186.9 153.6,185.1 154.8,183.3 156.1,181.6 157.6,179.9 159.1,178.4 160.6,176.9 166,184.3 
		172.3,179.7 167.9,173.7 166.9,172.3 168.8,171.2 170.8,170.3 172.8,169.4 174.8,168.7 176.9,168 179,167.5 179.9,167.3 
		181.1,167.1 183.3,166.8 183.3,173.7 183.3,176.1 191,176.1 191,173.7 191,166.8 193.2,167.1 195.3,167.5 197.4,168 199.5,168.7 
		201.6,169.4 203.6,170.3 205.5,171.2 207.4,172.3 206.4,173.7 204.6,176.1 202,179.7 208.3,184.3 213.2,177.5 213.7,176.9 
		215.3,178.4 216.8,179.9 218.2,181.6 219.5,183.3 220.8,185.1 221.9,186.9 223,188.8 223.7,190.3 223.9,190.8 215.1,193.7 
		217.5,201 226.4,198.1 226.9,200.3 227.2,202.5 227.4,204.7 227.5,206.9 227.5,207 227.5,209.2 227.4,211.4 227.1,213.6 
		226.7,215.8 226.2,217.9 225.6,220.1 224.9,222.2 224.1,224.2 223.1,226.3 222,228.2 220.9,230.1 219.6,231.9 217.3,234.2 
		213.2,234.2 211.7,234.2 211.7,224.8 203.9,224.8 203.9,234.2 191.5,234.2 191.5,224.8 191.5,207 191.5,206.8 183.3,206.8 
		182.8,206.8 182.8,207 182.8,224.8 182.8,234.2 179.9,234.2 170.4,234.2 170.4,224.8 162.7,224.8 162.7,234.2 157,234.2 
		154.7,231.9 153.5,230.1 152.3,228.2 	"/>
</g>
</svg>
